<svg xmlns="http://www.w3.org/2000/svg" version="1.1" xmlns:xlink="http://www.w3.org/1999/xlink" xmlns:svgjs="http://svgjs.com/svgjs" width="1440" height="560" preserveAspectRatio="none" viewBox="0 0 1440 560"><g mask="url(&quot;#SvgjsMask1120&quot;)" fill="none"><rect width="1440" height="560" x="0" y="0" fill="url(#SvgjsLinearGradient1121)"></rect><path d="M1440 0L790.39 0L1440 139.86z" fill="rgba(255, 255, 255, .1)"></path><path d="M790.39 0L1440 139.86L1440 172.66000000000003L355.91999999999996 0z" fill="rgba(255, 255, 255, .075)"></path><path d="M355.9200000000001 0L1440 172.66000000000003L1440 335.33000000000004L256.6700000000001 0z" fill="rgba(255, 255, 255, .05)"></path><path d="M256.6700000000001 0L1440 335.33000000000004L1440 445.09000000000003L76.50000000000009 0z" fill="rgba(255, 255, 255, .025)"></path><path d="M0 560L528.5 560L0 316.51z" fill="rgba(0, 0, 0, .1)"></path><path d="M0 316.51L528.5 560L1005.77 560L0 229.37z" fill="rgba(0, 0, 0, .075)"></path><path d="M0 229.37L1005.77 560L1196 560L0 206.37z" fill="rgba(0, 0, 0, .05)"></path><path d="M0 206.37L1196 560L1347.17 560L0 171.7z" fill="rgba(0, 0, 0, .025)"></path></g><defs><mask id="SvgjsMask1120"><rect width="1440" height="560" fill="#ffffff"></rect></mask><linearGradient x1="15.28%" y1="-39.29%" x2="84.72%" y2="139.29%" gradientUnits="userSpaceOnUse" id="SvgjsLinearGradient1121"><stop stop-color="#0e2a47" offset="0"></stop><stop stop-color="rgba(78, 132, 202, 0.8)" offset="1"></stop></linearGradient></defs></svg>